{"title":"Enrique Iglesias ft. Pitbull &amp;ndash; I&amp;rsquo;m A Freak 720p x264","uid":9550978,"size":66618348,"categoryP":"video","categoryS":"music_videos","magnet":"?xt=urn:btih:6208ea9c667d1307ac5117264d244bd4cc7f666d&amp;dn=Enrique+Iglesias+ft.+Pitbull+%26ndash%3B+I%26rsquo%3Bm+A+Freak+720p+x264&amp;tr=udp%3A%2F%2Ftracker.openbittorrent.com%3A80&amp;tr=udp%3A%2F%2Fopen.demonii.com%3A1337&amp;tr=udp%3A%2F%2Ftracker.coppersurfer.tk%3A6969&amp;tr=udp%3A%2F%2Fexodus.desync.com%3A6969","seeders":6,"leechers":0,"uploader":"canc232","files":1,"time":1391263021,"description":"Enrique Iglesias ft. Pitbull ? I?m A Freak 720p x264 AAC E-Subs [GWC] \n\n\nCOVER : &lt;a href=&quot;\nhttp://imageshack.com/a/img32/1931/1qfh.jpg&quot; rel=&quot;nofollow&quot; target=&quot;_NEW&quot;&gt;\nhttp://imageshack.com/a/img32/1931/1qfh.jpg&lt;/a&gt;\n\n\nTHUMBNAIL IMAGE : &lt;a href=&quot;\nhttp://imageshack.com/a/img541/2272/1e1y.jpg&quot; rel=&quot;nofollow&quot; target=&quot;_NEW&quot;&gt;\nhttp://imageshack.com/a/img541/2272/1e1y.jpg&lt;/a&gt;\n\n\nMEDIA INFO :\nGeneral \nFormat : MPEG-4 \nFormat profile : Base Media \nFile size : 63.5 MiB \nDuration : 3mn 54s \nOverall bit rate mode : Variable \nOverall bit rate : 2 268 Kbps \n\nVideo \nFormat : AVC \nFormat profile : &lt;a class=&quot;__cf_email__&quot; href=&quot;/cdn-cgi/l/email-protection&quot; data-cfemail=&quot;5d103c34331d116e736c&quot;&gt;[email&amp;#160;protected]&lt;/a&gt;&lt;script cf-hash='f9e31' type=&quot;text/javascript&quot;&gt;\n/* &lt;![CDATA[ */!function(){try{var t=&quot;currentScript&quot;in document?document.currentScript:function(){for(var t=document.getElementsByTagName(&quot;script&quot;),e=t.length;e--;)if(t[e].getAttribute(&quot;cf-hash&quot;))return t[e]}();if(t&amp;&amp;t.previousSibling){var e,r,n,i,c=t.previousSibling,a=c.getAttribute(&quot;data-cfemail&quot;);if(a){for(e=&quot;&quot;,r=parseInt(a.substr(0,2),16),n=2;a.length-n;n+=2)i=parseInt(a.substr(n,2),16)^r,e+=String.fromCharCode(i);e=document.createTextNode(e),c.parentNode.replaceChild(e,c)}}}catch(u){}}();/* ]]&gt; */&lt;/script&gt; \nFormat settings, CABAC : Yes \nFormat settings, ReFrames : 3 frames \nDuration : 3mn 52s \nSource duration : 3mn 52s \nBit rate : 2 198 Kbps \nMaximum bit rate : 3 506 Kbps \nWidth : 1 280 pixels \nHeight : 720 pixels \nDisplay aspect ratio : 16:9 \nFrame rate mode : Variable \nFrame rate : 23.976 fps \nStream size : 61.0 MiB (96%) \nTitle : Enrique Iglesias ft. Pitbull ? I?m A Freak 720p x264 AAC E-Subs [GWC] \n\nAudio \nFormat : AAC \nFormat profile : LC \nDuration : 3mn 53s \nBit rate mode : Variable \nChannel(s) : 2 channels \nSampling rate : 48.0 KHz \nStream size : 2.38 MiB \nLanguage : English \n\nText \nFormat : Timed Text \nDuration : 3mn 54s \nBit rate mode : Variable \nStream size : 2.55 KiB (0%) \nTitle : English Subtitle by [GWC] \nLanguage : English \n","torrent":{"xt":"urn:btih:6208ea9c667d1307ac5117264d244bd4cc7f666d","amp;dn":"Enrique+Iglesias+ft.+Pitbull+%26ndash%3B+I%26rsquo%3Bm+A+Freak+720p+x264","amp;tr":["udp%3A%2F%2Ftracker.openbittorrent.com%3A80","udp%3A%2F%2Fopen.demonii.com%3A1337","udp%3A%2F%2Ftracker.coppersurfer.tk%3A6969","udp%3A%2F%2Fexodus.desync.com%3A6969"],"infoHash":"6208ea9c667d1307ac5117264d244bd4cc7f666d","infoHashBuffer":{"type":"Buffer","data":[98,8,234,156,102,125,19,7,172,81,23,38,77,36,75,212,204,127,102,109]},"announce":[],"urlList":[]}}